<?xml version="1.0" standalone="no"?>
<!DOCTYPE svg PUBLIC "-//W3C//DTD SVG 20010904//EN"
 "http://www.w3.org/TR/2001/REC-SVG-20010904/DTD/svg10.dtd">
<svg version="1.0" xmlns="http://www.w3.org/2000/svg"
 width="800.000000pt" height="800.000000pt" viewBox="0 0 800.000000 800.000000"
 preserveAspectRatio="xMidYMid meet">
<metadata>
Created by potrace 1.11, written by Peter Selinger 2001-2013
</metadata>
<g transform="translate(0.000000,800.000000) scale(0.100000,-0.100000)"
fill="#000000" stroke="none">
<path d="M5220 6187 c-93 -33 -149 -69 -212 -135 -86 -90 -128 -189 -128 -303
0 -53 23 -143 41 -163 16 -17 10 -36 -11 -36 -32 0 -122 -45 -166 -83 -132
-116 -152 -360 -39 -479 19 -20 64 -51 99 -68 l64 -32 -61 -89 c-47 -71 -61
-100 -65 -138 -4 -41 -1 -51 19 -70 12 -11 36 -21 52 -21 37 0 162 42 237 80
70 35 80 37 80 10 0 -67 109 -189 211 -238 84 -40 136 -51 235 -52 203 0 370
110 421 279 9 31 18 57 19 59 0 1 25 -9 54 -22 191 -88 443 1 531 187 98 211
37 462 -134 543 l-33 16 35 36 c172 183 84 528 -166 644 -55 26 -83 33 -154
36 -128 6 -226 -26 -307 -102 l-33 -31 -33 37 c-43 47 -124 99 -201 128 -47
18 -85 24 -175 26 -100 4 -123 1 -180 -19z m255 -58 c130 -24 253 -107 274
-185 16 -60 51 -68 82 -21 31 48 104 107 158 129 42 17 76 22 138 22 71 0 90
-5 146 -32 126 -62 199 -175 205 -320 4 -74 1 -88 -23 -138 -29 -59 -84 -108
-136 -119 -32 -7 -52 -35 -43 -59 6 -16 17 -20 79 -31 78 -13 150 -68 191
-145 15 -28 19 -57 19 -145 0 -98 -3 -116 -27 -166 -32 -70 -90 -130 -155
-160 -40 -19 -65 -23 -148 -24 -89 0 -105 3 -144 25 -26 14 -51 39 -60 57 -18
36 -35 46 -62 38 -15 -5 -19 -16 -19 -48 -1 -103 -48 -218 -112 -273 -82 -69
-215 -104 -327 -87 -176 27 -326 161 -308 275 11 72 -27 86 -103 39 -61 -37
-182 -90 -243 -107 -47 -12 -48 -12 -42 9 8 27 81 135 135 200 50 60 43 80
-30 96 -115 25 -175 72 -206 166 -45 132 53 313 187 345 28 7 69 9 94 6 42 -7
45 -6 51 19 5 20 -1 36 -23 68 -43 61 -52 80 -63 139 -41 214 164 430 416 437
22 1 67 -4 99 -10z"/>
<path d="M5490 5683 c-62 -21 -130 -78 -130 -108 0 -33 25 -38 57 -11 57 47
108 66 182 66 127 0 201 -58 201 -156 0 -63 -12 -83 -36 -63 -25 20 -138 18
-196 -4 -112 -43 -133 -153 -38 -202 46 -24 129 -19 184 10 49 26 56 21 36
-30 -8 -22 -14 -25 -33 -19 -55 19 -128 -4 -166 -52 -28 -35 -27 -65 3 -97 36
-38 70 -44 127 -19 53 22 55 21 37 -11 -17 -32 -36 -45 -103 -66 -51 -16 -60
-22 -63 -44 -5 -36 25 -42 95 -17 116 40 148 81 149 188 0 46 7 94 17 121 9
24 17 69 17 100 1 31 9 81 20 111 23 64 25 107 8 164 -17 55 -82 119 -143 139
-60 21 -165 21 -225 0z m245 -337 c16 -12 17 -16 6 -30 -27 -32 -82 -58 -126
-58 -48 -1 -75 14 -75 43 0 44 149 79 195 45z m-40 -245 c8 -14 -46 -52 -69
-49 -30 5 -30 25 1 42 32 17 59 20 68 7z"/>
<path d="M3970 5099 c-393 -45 -716 -82 -955 -110 -143 -16 -339 -38 -435 -49
-96 -12 -294 -34 -440 -51 -146 -16 -362 -41 -479 -54 -118 -14 -218 -28 -222
-32 -16 -18 -49 -90 -55 -119 -8 -42 667 -2070 698 -2096 11 -10 35 -18 54
-18 33 0 34 -2 34 -37 0 -54 18 -111 38 -122 62 -33 588 -118 1342 -216 428
-56 351 -59 1030 39 327 48 629 91 670 97 41 5 181 25 310 44 129 19 397 57
595 85 198 27 374 52 391 55 37 6 54 37 54 99 0 55 -17 104 -38 110 -16 5
-130 26 -772 141 -168 30 -327 59 -355 64 -27 6 -131 24 -230 42 -99 17 -183
34 -188 38 -6 6 -70 156 -236 561 -132 320 -165 399 -183 440 -11 25 -27 63
-34 84 -8 22 -18 44 -22 50 -5 6 -19 38 -32 71 -20 53 -200 492 -327 798 -25
59 -48 106 -52 106 -3 -1 -76 -10 -161 -20z m178 -91 c28 -69 126 -306 214
-518 22 -52 57 -140 80 -195 22 -55 50 -122 62 -150 13 -27 31 -72 41 -98 13
-35 21 -45 28 -35 6 9 7 8 3 -5 -5 -16 34 -117 194 -502 218 -526 210 -505
192 -505 -4 0 -294 -41 -643 -90 -348 -50 -843 -120 -1099 -156 -256 -36 -586
-83 -735 -104 -148 -22 -273 -36 -276 -32 -4 4 -81 228 -172 497 -91 270 -252
744 -357 1055 -106 311 -195 575 -197 587 -6 26 -49 19 477 78 217 25 514 58
660 75 146 17 443 51 660 75 217 25 483 56 590 69 275 33 243 39 278 -46z
m998 -2062 c71 -13 387 -70 702 -127 336 -61 566 -107 555 -111 -10 -4 -169
-28 -353 -53 -324 -45 -529 -74 -1205 -169 -963 -135 -842 -126 -1120 -87 -82
11 -265 36 -405 56 -140 19 -338 47 -440 60 -446 60 -519 71 -524 76 -5 5 429
68 1924 278 349 50 646 92 660 94 52 9 81 6 206 -17z"/>
<path d="M3830 4880 c-91 -10 -217 -23 -280 -29 -103 -10 -1089 -129 -1380
-166 -63 -8 -191 -24 -285 -36 -93 -12 -172 -23 -174 -25 -3 -3 10 -57 29
-122 41 -146 558 -1704 568 -1714 4 -4 50 0 102 8 52 8 156 23 230 34 74 11
196 29 270 40 74 11 167 25 205 31 39 6 111 16 160 24 81 12 521 75 980 140
94 13 246 34 339 47 99 13 170 28 173 34 2 7 -4 32 -15 56 -11 23 -55 129 -97
233 -42 105 -93 228 -112 275 -19 47 -59 144 -88 215 -29 72 -104 256 -167
410 -64 154 -139 344 -168 423 l-53 142 -36 -1 c-20 -1 -110 -9 -201 -19z
m-1929 -430 c10 -30 42 -134 72 -229 31 -96 53 -179 51 -183 -19 -30 -37 4
-89 170 -31 97 -63 197 -71 221 -19 60 -18 83 3 79 11 -2 23 -23 34 -58z m236
-746 c17 -54 59 -184 92 -289 33 -104 83 -263 112 -353 38 -121 48 -167 40
-175 -8 -8 -14 -8 -22 0 -17 17 -291 893 -285 909 13 33 32 4 63 -92z m2249
88 c6 -4 23 -38 37 -77 26 -71 51 -135 127 -328 39 -102 45 -144 18 -135 -6 2
-26 40 -43 84 -182 459 -175 441 -168 457 5 9 15 9 29 -1z"/>
<path d="M4775 2885 c-88 -14 -326 -47 -530 -75 -203 -28 -482 -67 -620 -86
-137 -19 -297 -41 -355 -49 -315 -44 -453 -64 -458 -70 -16 -16 33 -27 224
-50 470 -57 426 -54 569 -34 72 10 229 32 350 48 675 92 1357 185 1536 211 75
11 142 20 148 20 21 0 11 30 -11 35 -19 4 -197 28 -443 60 -125 16 -258 13
-410 -10z m253 -10 c-3 -3 -30 -10 -59 -14 -59 -10 -95 0 -39 10 46 8 105 10
98 4z m202 -26 c8 -1 2 -5 -15 -9 -39 -10 -151 -12 -141 -3 9 10 96 22 121 17
11 -2 27 -4 35 -5z m-520 -24 c-99 -20 -190 -29 -190 -18 0 10 134 29 210 30
42 1 41 0 -20 -12z m745 -4 c28 -6 27 -7 -19 -14 -69 -10 -146 -9 -146 2 0 15
114 23 165 12z m-487 -9 c19 -13 -220 -44 -248 -34 -18 7 0 12 81 24 126 19
150 20 167 10z m-582 -29 c-9 -10 -156 -32 -210 -33 -63 0 -34 11 61 25 104
15 159 18 149 8z m801 0 c25 -10 -215 -42 -247 -33 -24 7 -23 8 10 14 133 25
207 31 237 19z m-580 -30 c-8 -7 -184 -32 -234 -33 -60 0 -34 16 40 27 86 12
203 16 194 6z m-590 -21 c18 -12 -212 -43 -239 -33 -17 6 -2 11 67 20 50 7 97
14 105 15 29 7 55 6 67 -2z m787 -1 c13 -5 -25 -14 -108 -25 -82 -12 -131 -15
-137 -9 -7 7 27 16 93 25 123 18 128 19 152 9z m-569 -30 c-20 -17 -290 -43
-272 -25 8 9 165 32 227 33 31 1 50 -3 45 -8z m-587 -22 c35 -2 -40 -17 -142
-30 -93 -11 -130 -9 -115 6 7 7 212 33 227 29 8 -2 21 -4 30 -5z m791 -3 c-6
-6 -205 -36 -237 -36 -48 0 -10 15 66 26 81 12 178 17 171 10z m-579 -26 c8
-5 11 -10 5 -10 -5 0 -60 -7 -122 -16 -75 -11 -117 -13 -129 -6 -13 7 5 12 72
21 49 7 94 14 99 16 20 7 60 4 75 -5z m-575 -29 c-8 -7 -128 -28 -195 -33 -40
-3 -102 3 -96 9 10 10 165 30 241 32 35 1 55 -3 50 -8z m772 2 c-8 -8 -169
-32 -216 -33 -56 0 -29 11 61 25 93 14 165 18 155 8z m-560 -30 c-9 -9 -172
-33 -226 -33 -63 0 -42 13 42 26 82 13 194 17 184 7z m183 -21 c0 -10 -201
-37 -221 -30 -8 3 27 10 76 17 50 7 95 14 100 16 19 7 45 5 45 -3z"/>
<path d="M4720 2644 c-168 -23 -314 -44 -325 -46 -11 -2 -20 -9 -20 -17 0 -9
40 -28 113 -52 l114 -38 321 39 c177 22 328 40 337 40 25 0 46 18 35 29 -9 9
-171 63 -250 83 -11 3 -157 -14 -325 -38z m388 -16 c45 -13 68 -24 60 -29 -7
-3 -136 -21 -286 -39 l-272 -32 -65 18 c-36 10 -65 22 -65 25 0 3 73 16 163
28 89 12 205 28 257 35 129 19 126 19 208 -6z"/>
<path d="M1794 2300 c-23 -4 -30 -11 -32 -33 -5 -41 25 -47 222 -47 162 0 174
1 192 21 14 15 16 24 8 37 -10 15 -36 18 -186 22 -96 3 -188 3 -204 0z"/>
<path d="M2263 2133 c-14 -5 -17 -41 -5 -61 7 -9 88 -12 372 -10 333 3 364 4
374 21 8 12 8 22 0 35 -10 16 -40 17 -370 19 -197 1 -365 -1 -371 -4z"/>
<path d="M1464 2117 c-24 -14 -17 -56 12 -67 34 -13 350 -13 375 0 21 12 26
58 7 65 -23 9 -379 10 -394 2z"/>
</g>
</svg>
